# xmcd CD database file
#
# Track frame offsets:
#	150
#	20512
#	41820
#	67154
#	90745
#	113115
#	133570
#	153360
#	172818
#	195853
#	224740
#
# Disc length: 3252 seconds
#
# Revision: 2
# Processed by: cddbd v1.5.2PL0 Copyright (c) Steve Scherf et al.
# Submitted via: CDex 1.70beta2
#
DISCID=960cb20b
DTITLE=Faust~2006 - 2006~Neuland
DYEAR=2006
DGENRE=
TTITLE0=Wie wir sind
TTITLE1=Politiker
TTITLE2=Die Raben fliegen wieder
TTITLE3=Neuland
TTITLE4=Für Dich
TTITLE5=Nur die Gedanken sind frei
TTITLE6=Wie reizend sind die Frauen
TTITLE7=Wahre Sünder
TTITLE8=Wann werden wir uns wieder sehen
TTITLE9=Herrenrunde
TTITLE10=Wo sind deine Träume
EXTD=YEAR: 2006
EXTT0=
EXTT1=
EXTT2=
EXTT3=
EXTT4=
EXTT5=
EXTT6=
EXTT7=
EXTT8=
EXTT9=
EXTT10=
PLAYORDER=
